<svg xmlns="http://www.w3.org/2000/svg" xmlns:xlink="http://www.w3.org/1999/xlink" width="923.641" height="573.297" viewBox="0 0 923.641 573.297">
  <defs>
    <clipPath id="clip-path">
      <path id="Path_86" data-name="Path 86" d="M196.658,248.445l5.188,10.967s21.4,44.241,34.516,94.9c.311,1.2,7.095,25.2,1.655,84.944l3.1,10.484-3.386,17.316s5.094,7.366,4.911,9.77c0,0-12.576,2.349-16.765,4.6-3.268,1.756-13.062,11.429-13.062,11.429-2.777-.575-3.021-11.812-3.021-11.812S203.976,381.3,202.316,377s-11.878-22.825-27.791-65.233c0,0-.36,59.237-4.611,74.217-3.783,13.331.7,50.644.7,50.644l-2.553,41.533s8.95,9.3,1.689,11.8c0,0-4.849-9.334-18.671-11.455-7.025-1.078-15.784,11.4-15.784,11.4-3.068-.984,1.308-16.656,1.308-16.656-9.8-73.928-2.564-60.547-4.521-96.68-1.257-23.186-7.84-122.4-.119-130.466Z" transform="translate(-128.267 -246.1)" fill="#bfbfbf" stroke="#3e424b" stroke-linecap="round" stroke-linejoin="round" stroke-width="1"/>
    </clipPath>
    <clipPath id="clip-path-2">
      <path id="Rectangle_194" data-name="Rectangle 194" d="M1.882,0H31.4a1.882,1.882,0,0,1,1.882,1.882V22.754a0,0,0,0,1,0,0H0a0,0,0,0,1,0,0V1.882A1.882,1.882,0,0,1,1.882,0Z" transform="translate(0 3.058) rotate(-5.272)" fill="#5787ff" stroke="#3e424b" stroke-linecap="round" stroke-linejoin="round" stroke-width="1"/>
    </clipPath>
    <clipPath id="clip-path-3">
      <path id="Rectangle_199" data-name="Rectangle 199" d="M1.881,0H31.4a1.881,1.881,0,0,1,1.881,1.881V22.754a0,0,0,0,1,0,0H0a0,0,0,0,1,0,0V1.881A1.881,1.881,0,0,1,1.881,0Z" transform="translate(0 3.058) rotate(-5.272)" fill="#5787ff" stroke="#3e424b" stroke-linecap="round" stroke-linejoin="round" stroke-width="1"/>
    </clipPath>
    <clipPath id="clip-path-4">
      <path id="Path_108" data-name="Path 108" d="M333.291,110.63l8.584,93.032L191.987,217.494,183.4,124.463a5.885,5.885,0,0,1,5.322-6.4l138.162-12.749A5.885,5.885,0,0,1,333.291,110.63Z" transform="translate(-183.377 -105.283)" fill="#5787ff" stroke="#3e424b" stroke-linecap="round" stroke-linejoin="round" stroke-width="1"/>
    </clipPath>
    <clipPath id="clip-path-5">
      <path id="Path_138" data-name="Path 138" d="M363.508,395.482s-16.816-6.2-20.119,6.2c0,0,3,13.657,1.2,21.116s-10.85,21.727-11.411,24.443c-1.095,5.3-.269,5.658-.269,5.658s6.59,3.809,15.433-.269,24.173-21.62,26.576-25.231-7.508-17.9-7.508-17.9Z" transform="translate(-332.611 -393.933)" fill="#fff" stroke="#3e424b" stroke-linecap="round" stroke-linejoin="round" stroke-width="1"/>
    </clipPath>
    <clipPath id="clip-path-6">
      <path id="Rectangle_208" data-name="Rectangle 208" d="M1.882,0H31.4a1.882,1.882,0,0,1,1.882,1.882V22.754a0,0,0,0,1,0,0H0a0,0,0,0,1,0,0V1.882A1.882,1.882,0,0,1,1.882,0Z" transform="translate(1.949 0) rotate(4.915)" fill="#5787ff" stroke="#3e424b" stroke-linecap="round" stroke-linejoin="round" stroke-width="1"/>
    </clipPath>
    <clipPath id="clip-path-7">
      <path id="Rectangle_213" data-name="Rectangle 213" d="M1.882,0H31.4a1.882,1.882,0,0,1,1.882,1.882V22.754a0,0,0,0,1,0,0H0a0,0,0,0,1,0,0V1.882A1.882,1.882,0,0,1,1.882,0Z" transform="translate(1.949 0) rotate(4.914)" fill="#5787ff" stroke="#3e424b" stroke-linecap="round" stroke-linejoin="round" stroke-width="1"/>
    </clipPath>
    <clipPath id="clip-path-8">
      <path id="Path_150" data-name="Path 150" d="M375.1,250.549l-8,93.083-149.971-12.9,8-93.082a5.886,5.886,0,0,1,6.371-5.363l138.238,11.887A5.885,5.885,0,0,1,375.1,250.549Z" transform="translate(-217.123 -232.269)" fill="#5787ff" stroke="#3e424b" stroke-linecap="round" stroke-linejoin="round" stroke-width="1"/>
    </clipPath>
    <clipPath id="clip-path-9">
      <path id="Path_156" data-name="Path 156" d="M400.28,409.775s-7.167-5.12-22.015-4.1c0,0-1.074,17.8-3.1,22.978s-12.662,14.14-14.638,15.676-1.975,6.912-1.975,6.912h45.054a142.575,142.575,0,0,0-3.585-22.851Z" transform="translate(-358.555 -405.543)" fill="#fff" stroke="#3e424b" stroke-linecap="round" stroke-linejoin="round" stroke-width="1"/>
    </clipPath>
    <clipPath id="clip-path-10">
      <path id="Path_168" data-name="Path 168" d="M419.01,297.762s-28.744,5.63-56.931-3.507a81.511,81.511,0,0,1-18.3-8.451s.078-1.812.129-4.775c.233-11.57.168-40.676-5.927-47.936-3.831-4.543-6.924-32.626.569-46.823l22.92-18.429c31.733,6.2,38.437,14.6,43.678,32.717.971,3.313,1.877,6.95,2.886,10.962,1.1,4.374,2.135,9.719,3.119,15.595C415.917,256.077,419.01,297.762,419.01,297.762Z" transform="translate(-333.969 -167.84)" fill="#fddb3a" stroke="#3e424b" stroke-linecap="round" stroke-linejoin="round" stroke-width="1"/>
    </clipPath>
    <clipPath id="clip-path-11">
      <path id="Rectangle_222" data-name="Rectangle 222" d="M1.882,0H31.4a1.882,1.882,0,0,1,1.882,1.882V22.754a0,0,0,0,1,0,0H0a0,0,0,0,1,0,0V1.882A1.882,1.882,0,0,1,1.882,0Z" fill="#5787ff" stroke="#3e424b" stroke-linecap="round" stroke-linejoin="round" stroke-width="1"/>
    </clipPath>
    <clipPath id="clip-path-13">
      <path id="Path_198" data-name="Path 198" d="M353.635,372.571V466H203.11V372.571A5.885,5.885,0,0,1,209,366.683H347.747A5.885,5.885,0,0,1,353.635,372.571Z" transform="translate(-203.11 -366.683)" fill="#5787ff" stroke="#3e424b" stroke-linecap="round" stroke-linejoin="round" stroke-width="1"/>
    </clipPath>
  </defs>
  <g id="Inllustration" transform="translate(-1159.545 -317.115)">
    <g id="Background_Simple" data-name="Background Simple" transform="translate(1165.571 317.115)">
      <path id="Path_55" data-name="Path 55" d="M70.76,207.674S34.682,300.837,85.38,394.686s155.144,143.4,238.735,185.776S494.507,602.2,535.757,532.788s-15.33-118.972-15.4-217.962,14.814-125.2-38.777-208.834S296.439,3.849,196.994,65.877,70.76,207.674,70.76,207.674Z" transform="translate(-58.315 -29.115)" fill="#f8f8f8" opacity="0.3"/>
      <path id="Path_56" data-name="Path 56" d="M119.076,120.782c17.405-20.808,40.941-36.912,69-36.567,47.871.589,73.748,42.969,101.233,75.668,14.253,16.956,30.4,33.315,51.544,41.278,31.729,11.949,67.056,4.971,97.965-6.119,13.844-4.967,30.247-11.953,45.838-8.386,47.407,10.845,42.467,68.7,34.636,105.332C508.715,341.443,491.533,394.1,456.7,432.1c-83.377,90.97-233.442,35.205-308.653-37.385-5.529-5.336-10.826-10.911-15.806-16.765A232.78,232.78,0,0,1,99.683,328.2c-24.262-50.4-27.6-111.676-6.577-163.765A165.594,165.594,0,0,1,119.076,120.782Z" transform="translate(-52.168 -11.931)" fill="#5787ff" opacity="0.1"/>
    </g>
    <g id="Floor" transform="translate(1160.045 854.285)">
      <line id="Line_15" data-name="Line 15" x2="922.641" fill="none" stroke="#3e424b" stroke-linecap="round" stroke-linejoin="round" stroke-width="1"/>
    </g>
    <g id="Window" transform="translate(1467.965 401.625)">
      <g id="Group_160" data-name="Group 160" transform="translate(0 0)">
        <path id="Path_58" data-name="Path 58" d="M291.973,284.082V93.66h11.788" transform="translate(-291.973 -93.66)" fill="none" stroke="#3e424b" stroke-linecap="round" stroke-linejoin="round" stroke-width="1"/>
        <line id="Line_16" data-name="Line 16" y1="5.058" transform="translate(0 208.033)" fill="none" stroke="#3e424b" stroke-linecap="round" stroke-linejoin="round" stroke-width="1"/>
        <path id="Path_59" data-name="Path 59" d="M334.086,93.66H455.744V324.5H291.973" transform="translate(-291.973 -93.66)" fill="none" stroke="#3e424b" stroke-linecap="round" stroke-linejoin="round" stroke-width="1"/>
        <line id="Line_17" data-name="Line 17" x2="10.691" transform="translate(27.195)" fill="none" stroke="#3e424b" stroke-linecap="round" stroke-linejoin="round" stroke-width="1"/>
        <rect id="Rectangle_190" data-name="Rectangle 190" width="151.455" height="218.547" transform="translate(6.158 6.145)" fill="none" stroke="#3e424b" stroke-linecap="round" stroke-linejoin="round" stroke-width="1"/>
        <path id="Path_60" data-name="Path 60" d="M439.541,107.454V198.2H302.174v-5.919" transform="translate(-288.972 -89.603)" fill="none" stroke="#3e424b" stroke-linecap="round" stroke-linejoin="round" stroke-width="1"/>
        <path id="Path_61" data-name="Path 61" d="M302.174,179.605V103.388H439.541" transform="translate(-288.972 -90.799)" fill="none" stroke="#3e424b" stroke-linecap="round" stroke-linejoin="round" stroke-width="1"/>
        <line id="Line_18" data-name="Line 18" y1="5.754" transform="translate(13.202 92.379)" fill="none" stroke="#3e424b" stroke-linecap="round" stroke-linejoin="round" stroke-width="1"/>
        <line id="Line_19" data-name="Line 19" x2="30.239" transform="translate(127.374 115.419)" fill="none" stroke="#3e424b" stroke-linecap="round" stroke-linejoin="round" stroke-width="1"/>
        <line id="Line_20" data-name="Line 20" x2="4.279" transform="translate(116.619 115.419)" fill="none" stroke="#3e424b" stroke-linecap="round" stroke-linejoin="round" stroke-width="1"/>
        <line id="Line_21" data-name="Line 21" x2="105.352" transform="translate(6.158 115.419)" fill="none" stroke="#3e424b" stroke-linecap="round" stroke-linejoin="round" stroke-width="1"/>
        <path id="Path_62" data-name="Path 62" d="M349.364,178.287v-3.124h12.665v1.777h-5.053v1.347" transform="translate(-275.09 -69.685)" fill="none" stroke="#3e424b" stroke-linecap="round" stroke-linejoin="round" stroke-width="1"/>
        <path id="Path_63" data-name="Path 63" d="M296.934,247.035s2.1,1.588,3.576,11.211c0,0,2.543-15.366,5.626-15.606s2.455,10,2.455,10,.514-5.045,2.929-4.812,0,10.419,0,10.419,2.9-7.94,5.643-7.805-1.823,14.39-1.823,14.39,7.043-5.1,9.9-2.6-1.585,8.785-1.585,8.785,10.1-2.19,11.67,3.735" transform="translate(-290.514 -49.836)" fill="none" stroke="#3e424b" stroke-linecap="round" stroke-linejoin="round" stroke-width="1"/>
        <path id="Path_64" data-name="Path 64" d="M326.593,269.907s4.4-2.883,7.861-1.539c0,0-2.2-3.356,0-5.408s5.03,5.408,5.03,5.408.315-12.491,4.717-11.862,0,11.862,0,11.862,7.861-6.97,9.748-4.543-1.258,6.081-1.258,6.081,4.715-1.508,8.174,2.007c0,0,5.271-5.377,11.126-6.147,0,0-3.893-11.3-2.006-13.585s5.315,9.865,5.315,9.865,1.5-7.9,6.415-8.509c0,0-4.095-2.227-2.881-5.6s6.872.792,6.872.792-2.323-5.939,1.354-7.57,5.214,4.972,5.214,4.972,1.024-6.917,5.35-6.536c4.29.378,2.922,8.341,2.922,8.341s4.079-6.327,6.264-5.683c4.365,1.288,3.04,11.287,3.04,11.287s6.093-4.235,7.662-2.284c1.693,2.1-6.336,7.514-6.336,7.514s6.044.672,9.806,4.192" transform="translate(-281.789 -50.735)" fill="none" stroke="#3e424b" stroke-linecap="round" stroke-linejoin="round" stroke-width="1"/>
        <path id="Path_65" data-name="Path 65" d="M420.176,249.318s-.7-6.344-7.044-6.678,1.745,13.912,1.745,13.912-5.231-4.329-7.112-3,5.367,8.675,5.367,8.675-3.477-3.217-7.146-2.221,2.094,11.208,2.094,11.208A26.2,26.2,0,0,0,391.95,273.1" transform="translate(-262.563 -49.836)" fill="none" stroke="#3e424b" stroke-linecap="round" stroke-linejoin="round" stroke-width="1"/>
      </g>
    </g>
    <g id="Table" transform="translate(1166.374 610.652)">
      <g id="Group_164" data-name="Group 164" transform="translate(0 0)">
        <g id="Group_161" data-name="Group 161" transform="translate(0 127.807)">
          <line id="Line_22" data-name="Line 22" y2="56.33" transform="translate(242.987 59.165)" fill="none" stroke="#3e424b" stroke-linecap="round" stroke-linejoin="round" stroke-width="1"/>
          <line id="Line_23" data-name="Line 23" y2="12.071" transform="translate(242.987 40.734)" fill="none" stroke="#3e424b" stroke-linecap="round" stroke-linejoin="round" stroke-width="1"/>
          <path id="Path_66" data-name="Path 66" d="M63.49,467.285V362.328H300.583v23.039" transform="translate(-57.596 -351.46)" fill="none" stroke="#3e424b" stroke-linecap="round" stroke-linejoin="round" stroke-width="1"/>
          <path id="Path_67" data-name="Path 67" d="M94.856,371.2H74.284v83.86" transform="translate(-54.421 -348.852)" fill="none" stroke="#3e424b" stroke-linecap="round" stroke-linejoin="round" stroke-width="1"/>
          <path id="Path_68" data-name="Path 68" d="M276.047,464.347V371.2H99.411" transform="translate(-47.029 -348.852)" fill="none" stroke="#3e424b" stroke-linecap="round" stroke-linejoin="round" stroke-width="1"/>
          <line id="Line_24" data-name="Line 24" x1="6.536" transform="translate(212.625)" fill="none" stroke="#3e424b" stroke-linecap="round" stroke-linejoin="round" stroke-width="1"/>
          <path id="Path_69" data-name="Path 69" d="M262.181,353.931H58.936v10.792H307.817V353.931H282.264" transform="translate(-58.936 -353.931)" fill="none" stroke="#3e424b" stroke-linecap="round" stroke-linejoin="round" stroke-width="1"/>
        </g>
        <g id="Group_163" data-name="Group 163" transform="translate(14.015)">
          <g id="Group_162" data-name="Group 162">
            <path id="Path_70" data-name="Path 70" d="M69.765,300.49s19.481,1.536,20.294,15.909C90.059,316.4,70.332,325.483,69.765,300.49Z" transform="translate(-69.765 -241.845)" fill="#5787ff" stroke="#3e424b" stroke-linecap="round" stroke-linejoin="round" stroke-width="1"/>
            <path id="Path_71" data-name="Path 71" d="M99.543,305.366s10.884-14.713,28.468-7.168C128.011,298.2,117.273,315.987,99.543,305.366Z" transform="translate(-61.005 -243.152)" fill="#fddb3a" stroke="#3e424b" stroke-linecap="round" stroke-linejoin="round" stroke-width="1"/>
            <path id="Path_72" data-name="Path 72" d="M125.535,267.352s3.129,28.309-22.638,20.513C102.9,287.864,111.079,267.054,125.535,267.352Z" transform="translate(-60.018 -251.594)" fill="#5787ff" stroke="#3e424b" stroke-linecap="round" stroke-linejoin="round" stroke-width="1"/>
            <path id="Path_73" data-name="Path 73" d="M96.606,255.175s20.378,10.989,5.4,27.664C102,282.839,87.709,270.929,96.606,255.175Z" transform="translate(-62.727 -255.175)" fill="#fddb3a" stroke="#3e424b" stroke-linecap="round" stroke-linejoin="round" stroke-width="1"/>
            <path id="Path_74" data-name="Path 74" d="M76.569,274.736s22.156-2.235,22.156,18.275C98.725,293.011,76.569,293.885,76.569,274.736Z" transform="translate(-67.763 -249.442)" fill="#fddb3a" stroke="#3e424b" stroke-linecap="round" stroke-linejoin="round" stroke-width="1"/>
            <path id="Path_75" data-name="Path 75" d="M89.427,339.388c-.322-6.88-.32-15.733,3.884-25.091,9.7-21.591,12.974-39.771,7.907-52.587" transform="translate(-64.017 -253.253)" fill="none" stroke="#3e424b" stroke-linecap="round" stroke-linejoin="round" stroke-width="1"/>
            <path id="Path_76" data-name="Path 76" d="M82.193,278.981s13.281,5.276,17.795,18.957" transform="translate(-66.109 -248.172)" fill="none" stroke="#3e424b" stroke-linecap="round" stroke-linejoin="round" stroke-width="1"/>
            <path id="Path_77" data-name="Path 77" d="M119.677,276.1S112,286.556,99,285.428" transform="translate(-61.165 -249.019)" fill="none" stroke="#3e424b" stroke-linecap="round" stroke-linejoin="round" stroke-width="1"/>
            <path id="Path_78" data-name="Path 78" d="M121.729,300.032s-21.257,6.124-29.7,4.119" transform="translate(-63.217 -241.979)" fill="none" stroke="#3e424b" stroke-linecap="round" stroke-linejoin="round" stroke-width="1"/>
            <path id="Path_79" data-name="Path 79" d="M74.674,305.491s9.5,10.428,19.057,10.264" transform="translate(-68.321 -240.373)" fill="none" stroke="#3e424b" stroke-linecap="round" stroke-linejoin="round" stroke-width="1"/>
          </g>
          <path id="Path_80" data-name="Path 80" d="M119.681,321.731H73.491a1.125,1.125,0,0,0-1.125,1.125v3.5a1.125,1.125,0,0,0,1.125,1.125h1.349L78.956,363.4h35.261l4.115-35.921h1.349a1.125,1.125,0,0,0,1.125-1.125v-3.5A1.125,1.125,0,0,0,119.681,321.731Z" transform="translate(-69 -235.596)" fill="#fddb3a" stroke="#3e424b" stroke-miterlimit="10" stroke-width="1"/>
          <line id="Line_25" data-name="Line 25" x2="26.865" transform="translate(8.805 91.886)" fill="none" stroke="#3e424b" stroke-linecap="round" stroke-linejoin="round" stroke-width="1"/>
          <line id="Line_26" data-name="Line 26" x2="4.037" transform="translate(40.737 91.886)" fill="none" stroke="#3e424b" stroke-linecap="round" stroke-linejoin="round" stroke-width="1"/>
        </g>
      </g>
    </g>
    <g id="Character_2" data-name="Character 2" transform="translate(1248.839 405.414)">
      <g id="Group_176" data-name="Group 176" transform="translate(0 0)">
        <path id="Path_81" data-name="Path 81" d="M133.606,450.681s-2.212-8.446.374-11.575c4.645-5.621-.567-10.331,4.095-12.284l1.953,2.267c.379-2.3-.708-9.293,7.938-10.206,10.452-1.1,10.65,6.5,11.214,9.009l-.172-3.5c4.456,0,2.147,4.448,8.9,11.727a19.264,19.264,0,0,1,4.883,14.563Z" transform="translate(-119.693 -1.81)" fill="#3e424b"/>
        <path id="Path_82" data-name="Path 82" d="M195.667,450.755c-4.2-1.88-.342-17.735-.342-17.735s-5.659-3.8,0-7.735a15.749,15.749,0,0,0,16.061,2.609s1.105-10.619,7.742-9.253c0,0,1.7,6.727,5.595,10.567,10.554,10.41,24.184,11.6,26.466,16.618.682,1.5-.146,4.93-.146,4.93Z" transform="translate(-102.018 -1.885)" fill="#3e424b"/>
        <g id="Group_167" data-name="Group 167" transform="translate(7.263 193.494)">
          <g id="Group_166" data-name="Group 166">
            <path id="Path_83" data-name="Path 83" d="M196.658,248.445l5.188,10.967s21.4,44.241,34.516,94.9c.311,1.2,7.095,25.2,1.655,84.944l3.1,10.484-3.386,17.316s5.094,7.366,4.911,9.77c0,0-12.576,2.349-16.765,4.6-3.268,1.756-13.062,11.429-13.062,11.429-2.777-.575-3.021-11.812-3.021-11.812S203.976,381.3,202.316,377s-11.878-22.825-27.791-65.233c0,0-.36,59.237-4.611,74.217-3.783,13.331.7,50.644.7,50.644l-2.553,41.533s8.95,9.3,1.689,11.8c0,0-4.849-9.334-18.671-11.455-7.025-1.078-15.784,11.4-15.784,11.4-3.068-.984,1.308-16.656,1.308-16.656-9.8-73.928-2.564-60.547-4.521-96.68-1.257-23.186-7.84-122.4-.119-130.466Z" transform="translate(-128.267 -246.1)" fill="#7a849a"/>
            <g id="Group_165" data-name="Group 165" clip-path="url(#clip-path)">
              <path id="Path_84" data-name="Path 84" d="M128.263,282.6c34.6,2.726,64.568-8.595,77.562-14.513-2.463-5.547-3.981-8.679-3.981-8.679l-5.188-10.963-64.7-2.342C129.172,249.009,128.25,263.8,128.263,282.6Z" transform="translate(-128.269 -246.098)" opacity="0.2"/>
              <path id="Path_85" data-name="Path 85" d="M164.233,300.939c15.745,41.865,25.859,60.192,27.508,64.472.945,2.474,3.264,36.343,5.069,64.771,2.08-25.858,4.209-53.15,4.4-58.507.383-10.651-7.316-25.271-8.476-29.05s1.459-7.866,1.459-7.866l-13.855-17.466c.466-5.929-6.862-31.8-6.862-31.8C169.111,289.618,165.274,298.4,164.233,300.939Z" transform="translate(-117.687 -234.512)" opacity="0.2"/>
            </g>
            <path id="Path_87" data-name="Path 87" d="M196.658,248.445l5.188,10.967s21.4,44.241,34.516,94.9c.311,1.2,7.095,25.2,1.655,84.944l3.1,10.484-3.386,17.316s5.094,7.366,4.911,9.77c0,0-12.576,2.349-16.765,4.6-3.268,1.756-13.062,11.429-13.062,11.429-2.777-.575-3.021-11.812-3.021-11.812S203.976,381.3,202.316,377s-11.878-22.825-27.791-65.233c0,0-.36,59.237-4.611,74.217-3.783,13.331.7,50.644.7,50.644l-2.553,41.533s8.95,9.3,1.689,11.8c0,0-4.849-9.334-18.671-11.455-7.025-1.078-15.784,11.4-15.784,11.4-3.068-.984,1.308-16.656,1.308-16.656-9.8-73.928-2.564-60.547-4.521-96.68-1.257-23.186-7.84-122.4-.119-130.466Z" transform="translate(-128.267 -246.1)" fill="none" stroke="#3e424b" stroke-linecap="round" stroke-linejoin="round" stroke-width="1"/>
          </g>
          <path id="Path_88" data-name="Path 88" d="M164.01,301.279s7.909-15.265,14.655-19.521" transform="translate(-117.753 -235.61)" fill="none" stroke="#3e424b" stroke-linecap="round" stroke-linejoin="round" stroke-width="1"/>
          <path id="Path_89" data-name="Path 89" d="M184.976,277.94s-24.022,7.307-32.348,8.725" transform="translate(-121.101 -236.734)" fill="none" stroke="#3e424b" stroke-linecap="round" stroke-linejoin="round" stroke-width="1"/>
          <path id="Path_90" data-name="Path 90" d="M168.561,259c1.035,20,8.09,23.406,1.27,27.768,0,0,.186,9.356-3.2,15.284" transform="translate(-116.982 -242.306)" fill="none" stroke="#3e424b" stroke-linecap="round" stroke-linejoin="round" stroke-width="1"/>
          <path id="Path_91" data-name="Path 91" d="M137.1,253.094s2.837,30.737-6.621,36.518" transform="translate(-127.616 -244.043)" fill="none" stroke="#3e424b" stroke-linecap="round" stroke-linejoin="round" stroke-width="1"/>
          <path id="Path_92" data-name="Path 92" d="M130.554,260.746s-.709,20.467,0,36.954c0,0,2.364,69.694,4.729,78.442s-3.643,21.956-3.122,59.809" transform="translate(-127.687 -241.792)" fill="none" stroke="#3e424b" stroke-linecap="round" stroke-linejoin="round" stroke-width="1"/>
          <path id="Path_93" data-name="Path 93" d="M149.527,419.073a9.848,9.848,0,0,0-6.62.887" transform="translate(-123.961 -195.277)" fill="none" stroke="#3e424b" stroke-linecap="round" stroke-linejoin="round" stroke-width="1"/>
          <path id="Path_94" data-name="Path 94" d="M161.327,427a36.293,36.293,0,0,0-10.179-6.982" transform="translate(-121.536 -194.938)" fill="none" stroke="#3e424b" stroke-linecap="round" stroke-linejoin="round" stroke-width="1"/>
          <path id="Path_95" data-name="Path 95" d="M161.03,300.573c-5.306,5.944-13.708,17.166-22.326,18.115" transform="translate(-125.197 -230.075)" fill="none" stroke="#3e424b" stroke-linecap="round" stroke-linejoin="round" stroke-width="1"/>
          <path id="Path_96" data-name="Path 96" d="M163.417,293.087c-1.633,2.062-3.316,4.083-5.025,6.08" transform="translate(-119.405 -232.278)" fill="none" stroke="#3e424b" stroke-linecap="round" stroke-linejoin="round" stroke-width="1"/>
          <path id="Path_97" data-name="Path 97" d="M160.674,346.91s-12.06,16.418-18.681,17.364" transform="translate(-124.23 -216.444)" fill="none" stroke="#3e424b" stroke-linecap="round" stroke-linejoin="round" stroke-width="1"/>
          <path id="Path_98" data-name="Path 98" d="M167.391,294.549s21.478,59.826,28.947,65.738c0,0,.848,43.984,1.085,59.355s3.783,35.793,3.783,35.793" transform="translate(-116.758 -231.848)" fill="none" stroke="#3e424b" stroke-linecap="round" stroke-linejoin="round" stroke-width="1"/>
          <path id="Path_99" data-name="Path 99" d="M215.274,418.52s-8.276,2.859-12.3,4.682a11.1,11.1,0,0,0-5.439,5.845" transform="translate(-107.889 -195.379)" fill="none" stroke="#3e424b" stroke-linecap="round" stroke-linejoin="round" stroke-width="1"/>
          <path id="Path_100" data-name="Path 100" d="M202.543,335.273c-11.538-7.242-26.743-16.283-32.871-29.03" transform="translate(-116.087 -228.407)" fill="none" stroke="#3e424b" stroke-linecap="round" stroke-linejoin="round" stroke-width="1"/>
          <path id="Path_101" data-name="Path 101" d="M204.307,334.139c-2.181-1.206-4.33-2.468-6.463-3.757" transform="translate(-107.8 -221.306)" fill="none" stroke="#3e424b" stroke-linecap="round" stroke-linejoin="round" stroke-width="1"/>
          <path id="Path_102" data-name="Path 102" d="M178.918,266.247c-6.2-.091-12.995-.9-18.288-4.405" transform="translate(-118.747 -241.469)" fill="none" stroke="#3e424b" stroke-linecap="round" stroke-linejoin="round" stroke-width="1"/>
          <path id="Path_103" data-name="Path 103" d="M183.591,264.8c-1.776.252-3.564.4-5.354.494" transform="translate(-113.567 -240.599)" fill="none" stroke="#3e424b" stroke-linecap="round" stroke-linejoin="round" stroke-width="1"/>
        </g>
        <path id="Path_104" data-name="Path 104" d="M211.442,160.714c-4.738-7.165-28.877-9-44.364-9s-34.293-2.613-42.791,14.883c-6.483,13.347,8.443,83.905,8.443,83.905l-3.656,30.462c28.064,8.8,76.131,6.857,76.131,6.857l-6.471-27.539S216.178,167.88,211.442,160.714Z" transform="translate(-122.655 -80.412)" fill="#3e424b"/>
        <path id="Path_105" data-name="Path 105" d="M150.837,138s2.078,16.606-4.238,20.188c0,0,3.158,12.179,14.213,12.934s15.995-11.161,15.995-11.161Z" transform="translate(-115.612 -84.407)" fill="#fff" stroke="#3e424b" stroke-linecap="round" stroke-linejoin="round" stroke-width="1"/>
        <g id="Group_174" data-name="Group 174" transform="translate(78.585)">
          <g id="Group_169" data-name="Group 169" transform="translate(12.985 8.087)">
            <path id="Rectangle_191" data-name="Rectangle 191" d="M1.882,0H31.4a1.882,1.882,0,0,1,1.882,1.882V22.754a0,0,0,0,1,0,0H0a0,0,0,0,1,0,0V1.882A1.882,1.882,0,0,1,1.882,0Z" transform="translate(0 3.058) rotate(-5.272)" fill="#5787ff"/>
            <g id="Group_168" data-name="Group 168" transform="translate(0)" clip-path="url(#clip-path-2)">
              <path id="Rectangle_192" data-name="Rectangle 192" d="M1.882,0H31.4a1.882,1.882,0,0,1,1.882,1.882V22.754a0,0,0,0,1,0,0H0a0,0,0,0,1,0,0V1.882A1.882,1.882,0,0,1,1.882,0Z" transform="translate(0 3.058) rotate(-5.272)" fill="rgba(0,0,0,0.7)" opacity="0.3"/>
              <rect id="Rectangle_193" data-name="Rectangle 193" width="8.192" height="16.383" transform="matrix(0.996, -0.092, 0.092, 0.996, 23.393, 3.048)" fill="rgba(255,255,255,0.7)" opacity="0.3"/>
            </g>
            <path id="Rectangle_195" data-name="Rectangle 195" d="M1.882,0H31.4a1.882,1.882,0,0,1,1.882,1.882V22.754a0,0,0,0,1,0,0H0a0,0,0,0,1,0,0V1.882A1.882,1.882,0,0,1,1.882,0Z" transform="translate(0 3.058) rotate(-5.272)" fill="none" stroke="#3e424b" stroke-linecap="round" stroke-linejoin="round" stroke-width="1"/>
          </g>
          <g id="Group_171" data-name="Group 171" transform="translate(61.955 3.568)">
            <path id="Rectangle_196" data-name="Rectangle 196" d="M1.881,0H31.4a1.881,1.881,0,0,1,1.881,1.881V22.754a0,0,0,0,1,0,0H0a0,0,0,0,1,0,0V1.881A1.881,1.881,0,0,1,1.881,0Z" transform="translate(0 3.058) rotate(-5.272)" fill="#5787ff"/>
            <g id="Group_170" data-name="Group 170" transform="translate(0 0)" clip-path="url(#clip-path-3)">
              <path id="Rectangle_197" data-name="Rectangle 197" d="M1.881,0H31.4a1.881,1.881,0,0,1,1.881,1.881V22.754a0,0,0,0,1,0,0H0a0,0,0,0,1,0,0V1.881A1.881,1.881,0,0,1,1.881,0Z" transform="translate(0 3.058) rotate(-5.272)" fill="rgba(0,0,0,0.7)" opacity="0.3"/>
              <rect id="Rectangle_198" data-name="Rectangle 198" width="4.949" height="16.383" transform="translate(26.084 2.8) rotate(-5.272)" fill="rgba(255,255,255,0.7)" opacity="0.3"/>
            </g>
            <path id="Rectangle_200" data-name="Rectangle 200" d="M1.881,0H31.4a1.881,1.881,0,0,1,1.881,1.881V22.754a0,0,0,0,1,0,0H0a0,0,0,0,1,0,0V1.881A1.881,1.881,0,0,1,1.881,0Z" transform="translate(0 3.058) rotate(-5.272)" fill="none" stroke="#3e424b" stroke-linecap="round" stroke-linejoin="round" stroke-width="1"/>
          </g>
          <path id="Rectangle_201" data-name="Rectangle 201" d="M1.882,0H31.4a1.882,1.882,0,0,1,1.882,1.882V22.754a0,0,0,0,1,0,0H0a0,0,0,0,1,0,0V1.882A1.882,1.882,0,0,1,1.882,0Z" transform="matrix(0.996, -0.092, 0.092, 0.996, 51.646, 7.577)" fill="#5787ff" stroke="#3e424b" stroke-linecap="round" stroke-linejoin="round" stroke-width="1"/>
          <path id="Rectangle_202" data-name="Rectangle 202" d="M1.882,0H31.4a1.882,1.882,0,0,1,1.882,1.882V22.754a0,0,0,0,1,0,0H0a0,0,0,0,1,0,0V1.882A1.882,1.882,0,0,1,1.882,0Z" transform="matrix(0.996, -0.092, 0.092, 0.996, 100.616, 3.058)" fill="#5787ff" stroke="#3e424b" stroke-linecap="round" stroke-linejoin="round" stroke-width="1"/>
          <rect id="Rectangle_203" data-name="Rectangle 203" width="8.192" height="16.383" transform="translate(75.039 7.567) rotate(-5.273)" fill="rgba(255,255,255,0.7)" opacity="0.3"/>
          <rect id="Rectangle_204" data-name="Rectangle 204" width="8.192" height="16.383" transform="matrix(0.996, -0.092, 0.092, 0.996, 123.471, 3.097)" fill="rgba(255,255,255,0.7)" opacity="0.3"/>
          <g id="Group_173" data-name="Group 173" transform="translate(0 11.252)">
            <path id="Path_106" data-name="Path 106" d="M333.291,110.63l8.584,93.032L191.987,217.494,183.4,124.463a5.885,5.885,0,0,1,5.322-6.4l138.162-12.749A5.885,5.885,0,0,1,333.291,110.63Z" transform="translate(-183.377 -105.283)" fill="#5787ff"/>
            <g id="Group_172" data-name="Group 172" clip-path="url(#clip-path-4)">
              <path id="Path_107" data-name="Path 107" d="M333.291,110.63l8.584,93.032L191.987,217.494,183.4,124.463a5.885,5.885,0,0,1,5.322-6.4l138.162-12.749A5.885,5.885,0,0,1,333.291,110.63Z" transform="translate(-183.377 -105.283)" fill="rgba(0,0,0,0.7)" opacity="0.3"/>
            </g>
            <path id="Path_109" data-name="Path 109" d="M333.291,110.63l8.584,93.032L191.987,217.494,183.4,124.463a5.885,5.885,0,0,1,5.322-6.4l138.162-12.749A5.885,5.885,0,0,1,333.291,110.63Z" transform="translate(-183.377 -105.283)" fill="none" stroke="#3e424b" stroke-linecap="round" stroke-linejoin="round" stroke-width="1"/>
          </g>
          <path id="Path_110" data-name="Path 110" d="M324.5,110.63l8.584,93.032L221.86,213.926l-8.584-93.032a5.883,5.883,0,0,1,5.323-6.4l99.5-9.182A5.885,5.885,0,0,1,324.5,110.63Z" transform="translate(-174.589 -94.031)" fill="#5787ff" stroke="#3e424b" stroke-linecap="round" stroke-linejoin="round" stroke-width="1"/>
          <path id="Path_111" data-name="Path 111" d="M315.854,113.613l-95.08,8.773a2.431,2.431,0,0,1-2.645-2.2h0a2.432,2.432,0,0,1,2.2-2.645l95.08-8.774a2.431,2.431,0,0,1,2.644,2.2h0A2.432,2.432,0,0,1,315.854,113.613Z" transform="translate(-173.157 -93.009)" fill="rgba(255,255,255,0.7)" opacity="0.3"/>
        </g>
        <g id="Group_175" data-name="Group 175" transform="translate(29.346 18.309)">
          <path id="Path_112" data-name="Path 112" d="M170.186,112.705s-21.931-4.4-24.389,9.726,5.6,20.119,5.6,20.119Z" transform="translate(-145.331 -110.347)" fill="#3e424b"/>
          <path id="Path_113" data-name="Path 113" d="M150.545,149.924a38.042,38.042,0,0,1-1.127-21.862c2.154-9.068,12.953-21.52,29.309-10.193,8.434,5.839,8.949,18.5,6.323,30.105-.628,2.768-.158,5.476-1.077,8.016-3.232,8.935-9.149,15.807-12.381,15.964-5.4.264-16.2-6.269-15.753-11.961" transform="translate(-144.449 -109.967)" fill="#fff" stroke="#3e424b" stroke-linecap="round" stroke-linejoin="round" stroke-width="1"/>
          <path id="Path_114" data-name="Path 114" d="M168.833,138.8s-4.36-3.158-8.558-.573" transform="translate(-140.934 -102.947)" fill="none" stroke="#3e424b" stroke-linecap="round" stroke-linejoin="round" stroke-width="1"/>
          <path id="Path_115" data-name="Path 115" d="M173.251,138.6s3.3-3.025,5.443-2.6" transform="translate(-137.117 -103.316)" fill="none" stroke="#3e424b" stroke-linecap="round" stroke-linejoin="round" stroke-width="1"/>
          <path id="Path_116" data-name="Path 116" d="M162.128,142.514c0,.8.408,1.453.912,1.453s.912-.65.912-1.453-.409-1.453-.912-1.453S162.128,141.712,162.128,142.514Z" transform="translate(-140.389 -101.815)" fill="#3e424b"/>
          <ellipse id="Ellipse_1" data-name="Ellipse 1" cx="0.913" cy="1.453" rx="0.913" ry="1.453" transform="translate(35.221 38.439)" fill="#3e424b"/>
          <path id="Path_117" data-name="Path 117" d="M172.959,140.356c-1.614,2.1.646,10.092,0,10.656s-4.763-1.05-4.763-1.05-.969-1.21,1.05-1.856" transform="translate(-138.672 -102.023)" fill="none" stroke="#3e424b" stroke-linecap="round" stroke-linejoin="round" stroke-width="1"/>
          <path id="Path_118" data-name="Path 118" d="M170.538,152.144s-5.522,0-7-2.009" transform="translate(-139.974 -99.146)" fill="none" stroke="#3e424b" stroke-linecap="round" stroke-linejoin="round" stroke-width="1"/>
          <path id="Path_119" data-name="Path 119" d="M162.218,130.808l-.431,6.675s-4.737,2.44-5.921,4.933a9.846,9.846,0,0,0-.753,5.184s-2.876-5.021-4.418-4.61c-.56.149-.559,2.249-.559,2.249s-6.433-14.433-.62-22.075S162.218,130.808,162.218,130.808Z" transform="translate(-144.815 -107.709)" fill="#757575" stroke="#3e424b" stroke-linecap="round" stroke-linejoin="round" stroke-width="1"/>
          <path id="Path_120" data-name="Path 120" d="M153.5,141.856s-1.292-4.845-5.652-6.137-1.372,10.324,2.341,11.869,4.647,2.583,4.867,1.211" transform="translate(-145.224 -103.416)" fill="#fff" stroke="#3e424b" stroke-linecap="round" stroke-linejoin="round" stroke-width="1"/>
          <path id="Path_121" data-name="Path 121" d="M147.218,132.985c-.356-.487-1.958-12.912,6.253-18.534s22.108-4.989,30.953,2.749,6.317,21.156,0,25.739v-5.6s-2.916,5.618-11.644,6.084l2.665-4.115s-4.288,2.528-11.868,2.37c0,0,3.556-2.843,3.043-5.37C166.621,136.309,154.6,143.081,147.218,132.985Z" transform="translate(-144.882 -110.736)" fill="#3e424b"/>
        </g>
        <path id="Path_122" data-name="Path 122" d="M150.8,166.131c-6.057.726-14.669,8.632-9.015,22.673,3.584,8.9,33.034,3.608,33.034,3.608,10.924-4.495,26.881-20.711,38.59-28.225,0,0-2.471-15.513-5.319-13.331-13.229,10.133-24.123,10.837-42.583,19.712C165.5,170.567,154.61,165.673,150.8,166.131Z" transform="translate(-117.571 -80.687)" fill="#fff" stroke="#3e424b" stroke-linecap="round" stroke-linejoin="round" stroke-width="1"/>
        <path id="Path_123" data-name="Path 123" d="M158.78,175.93c-.182,5.8,2.205,6.826,6.217,8.191" transform="translate(-112.031 -73.249)" fill="#fff" stroke="#3e424b" stroke-linecap="round" stroke-linejoin="round" stroke-width="1"/>
        <path id="Path_124" data-name="Path 124" d="M191.89,156.126c.267-.839,5.129-9.454,6.56-11.653s7.576-4.174,9.965-5.49,2.56-3.323,3.925-1.893,0,4.712-7.167,8.191a68.128,68.128,0,0,0,7.639,0c1.917-.276,3.624-2.021,4.477-.808s1.025,3.361-3.242,4.677a21.765,21.765,0,0,1-6.314,1.242s5.461,1.275,6.143,1.783,1.707,1.689,2.731,1.867,2.133,1.314.256,2.652-4.352.085-4.352.085,4.949,2.389,3.413,3.925-6.485,1.195-6.485,1.195-7.338,8.874-13.481,7" transform="translate(-102.288 -84.819)" fill="#fff" stroke="#3e424b" stroke-linecap="round" stroke-linejoin="round" stroke-width="1"/>
        <path id="Path_125" data-name="Path 125" d="M198.659,142.683a2.324,2.324,0,0,1,1.792,1.726c.427,1.536,1.673,1.622,2.442,3.329s.545,4.355,1.312,5.249,0,4.734,0,4.734" transform="translate(-100.297 -83.029)" fill="none" stroke="#3e424b" stroke-linecap="round" stroke-linejoin="round" stroke-width="1"/>
        <path id="Path_126" data-name="Path 126" d="M151.649,162.353c-3.177-4.037-10.286-2.212-10.286-2.212" transform="translate(-117.152 -78.014)" fill="none" stroke="#fff" stroke-linecap="round" stroke-linejoin="round" stroke-width="1"/>
        <path id="Path_127" data-name="Path 127" d="M138.363,154.3s7.32,1.069,9.484,7.168" transform="translate(-118.034 -79.611)" fill="none" stroke="#fff" stroke-linecap="round" stroke-linejoin="round" stroke-width="1"/>
        <path id="Path_128" data-name="Path 128" d="M152.424,184.673s-7.139,5.522-18.017-2.414" transform="translate(-119.198 -71.387)" fill="none" stroke="#fff" stroke-linecap="round" stroke-linejoin="round" stroke-width="1"/>
        <path id="Path_129" data-name="Path 129" d="M144.2,185.409s-3.628,5.01-12.459,4.946" transform="translate(-119.984 -70.46)" fill="none" stroke="#fff" stroke-linecap="round" stroke-linejoin="round" stroke-width="1"/>
        <path id="Path_130" data-name="Path 130" d="M185,234.1S166.316,248.99,147.33,247.08" transform="translate(-115.397 -56.136)" fill="none" stroke="#fff" stroke-linecap="round" stroke-linejoin="round" stroke-width="1"/>
        <path id="Path_131" data-name="Path 131" d="M137.407,208.81s29.012,21.274,50.515,22.639" transform="translate(-118.316 -63.576)" fill="none" stroke="#fff" stroke-linecap="round" stroke-linejoin="round" stroke-width="1"/>
      </g>
    </g>
    <g id="Character_3" data-name="Character 3" transform="translate(1371.096 445.407)">
      <g id="Group_194" data-name="Group 194" transform="translate(0 0)">
        <path id="Path_132" data-name="Path 132" d="M339.5,211.088l-5.234,28.143-42.21,25.647,5.83,10.72s48.81-14.889,49.99-18.367,12.443-40.348,12.443-40.348Z" transform="translate(-195.08 -102.899)" fill="#fff" stroke="#3e424b" stroke-linecap="round" stroke-linejoin="round" stroke-width="1"/>
        <path id="Path_133" data-name="Path 133" d="M347.717,174.33,344.9,208.444l-1.488,17.9c-8.14,3.96-16.1-1.993-16.591-2.381a.04.04,0,0,0-.026-.013C329.081,217.465,331.656,180.8,347.717,174.33Z" transform="translate(-184.862 -113.712)" fill="#fddb3a" stroke="#3e424b" stroke-linecap="round" stroke-linejoin="round" stroke-width="1"/>
        <path id="Path_134" data-name="Path 134" d="M344.89,202.969l-1.488,17.9c-8.14,3.96-16.1-1.993-16.591-2.381.349.155,4.633,1.967,7.416-.013a21.722,21.722,0,0,1-2.562-3.417c-.168-.673,2.563-.854,2.563-.854s-1.812-14.508,3.015-20.642C339.131,191.154,342.081,196.071,344.89,202.969Z" transform="translate(-184.856 -108.237)" fill="#3e424b" opacity="0.3"/>
        <g id="Group_179" data-name="Group 179" transform="translate(149.462 344.822)">
          <path id="Path_135" data-name="Path 135" d="M375.287,418.442l1.347,3.8a77.018,77.018,0,0,1-6.573,9.251s-1.33-.422-3.422,1.455a7.9,7.9,0,0,0-2.282,4.866s-9.88,11.859-22.429,12.029-8.756-6.143-8.756-6.143Z" transform="translate(-332.605 -386.723)" fill="#5787ff" stroke="#3e424b" stroke-linecap="round" stroke-linejoin="round" stroke-width="1"/>
          <g id="Group_178" data-name="Group 178">
            <path id="Path_136" data-name="Path 136" d="M363.508,395.482s-16.816-6.2-20.119,6.2c0,0,3,13.657,1.2,21.116s-10.85,21.727-11.411,24.443c-1.095,5.3-.269,5.658-.269,5.658s6.59,3.809,15.433-.269,24.173-21.62,26.576-25.231-7.508-17.9-7.508-17.9Z" transform="translate(-332.611 -393.933)" fill="#fff"/>
            <g id="Group_177" data-name="Group 177" clip-path="url(#clip-path-5)">
              <path id="Path_137" data-name="Path 137" d="M363.508,395.482s-16.816-6.2-20.119,6.2c0,0,3,13.657,1.2,21.116s-10.85,21.727-11.411,24.443c-1.095,5.3-.269,5.658-.269,5.658s6.59,3.809,15.433-.269,24.173-21.62,26.576-25.231-7.508-17.9-7.508-17.9Z" transform="translate(-332.611 -393.933)" fill="#5787ff" opacity="0.4"/>
            </g>
            <path id="Path_139" data-name="Path 139" d="M363.508,395.482s-16.816-6.2-20.119,6.2c0,0,3,13.657,1.2,21.116s-10.85,21.727-11.411,24.443c-1.095,5.3-.269,5.658-.269,5.658s6.59,3.809,15.433-.269,24.173-21.62,26.576-25.231-7.508-17.9-7.508-17.9Z" transform="translate(-332.611 -393.933)" fill="none" stroke="#3e424b" stroke-linecap="round" stroke-linejoin="round" stroke-width="1"/>
          </g>
          <path id="Path_140" data-name="Path 140" d="M350.79,408.678a36.561,36.561,0,0,1-4.209,24.338" transform="translate(-328.502 -389.595)" fill="none" stroke="#3e424b" stroke-linecap="round" stroke-linejoin="round" stroke-width="1"/>
          <path id="Path_141" data-name="Path 141" d="M350.561,430.329a11.366,11.366,0,0,1-7.2,6.656,20.033,20.033,0,0,1-10.309,0l4.039-8.188A25.792,25.792,0,0,0,350.561,430.329Z" transform="translate(-332.482 -383.676)" fill="#5787ff" stroke="#3e424b" stroke-linecap="round" stroke-linejoin="round" stroke-width="1"/>
          <path id="Path_142" data-name="Path 142" d="M351.465,426.459s-8.8.525-13.395-1.268" transform="translate(-331.006 -384.737)" fill="none" stroke="#3e424b" stroke-linecap="round" stroke-linejoin="round" stroke-width="1"/>
          <path id="Path_143" data-name="Path 143" d="M352.592,422.722s-8.224,1.259-12.82-1.347" transform="translate(-330.505 -385.86)" fill="none" stroke="#3e424b" stroke-linecap="round" stroke-linejoin="round" stroke-width="1"/>
          <path id="Path_144" data-name="Path 144" d="M353.469,418.519s-7.214,1.053-11.914-1.18" transform="translate(-329.98 -387.047)" fill="none" stroke="#3e424b" stroke-linecap="round" stroke-linejoin="round" stroke-width="1"/>
          <path id="Path_145" data-name="Path 145" d="M354.066,413.529s-8.02,2.517-11.817,0" transform="translate(-329.776 -388.168)" fill="none" stroke="#3e424b" stroke-linecap="round" stroke-linejoin="round" stroke-width="1"/>
          <path id="Path_146" data-name="Path 146" d="M356,402.347l1.4,8.817s-10.61,7-17.625-1.739l.032-9.2S342.407,406.428,356,402.347Z" transform="translate(-330.505 -392.082)" fill="#5787ff" stroke="#3e424b" stroke-linecap="round" stroke-linejoin="round" stroke-width="1"/>
        </g>
        <path id="Path_147" data-name="Path 147" d="M354.5,248.992c-10.752,34.072-44.131,88.732-40.746,102.712,1.849,7.637,12.863,50.906,21.475,69.931,3.285,7.256,10.352,12.115,10.352,12.115l5.116,10.964c12.458,5.417,16.925-5.612,16.925-5.612l-2.505-12.423c6.683-12.137,3.829-12.137-4.805-75.061-1.017-7.414,16.175-30.335,16.175-30.335l8.839,57.646,1.437,47.237,4.592,14.593s1.127,13.71,1.031,14.534h20.48l2.261-15.071s9.515-8.967,9.515-19.322-2.049-63.088,0-78.448-4.8-86.976-4.8-86.976Z" transform="translate(-188.766 -91.749)" fill="#3e424b"/>
        <g id="Group_186" data-name="Group 186" transform="translate(0 124.294)">
          <g id="Group_181" data-name="Group 181" transform="translate(22.22 0)">
            <path id="Rectangle_205" data-name="Rectangle 205" d="M1.882,0H31.4a1.882,1.882,0,0,1,1.882,1.882V22.754a0,0,0,0,1,0,0H0a0,0,0,0,1,0,0V1.882A1.882,1.882,0,0,1,1.882,0Z" transform="translate(1.949 0) rotate(4.915)" fill="#5787ff"/>
            <g id="Group_180" data-name="Group 180" transform="translate(0 0)" clip-path="url(#clip-path-6)">
              <path id="Rectangle_206" data-name="Rectangle 206" d="M1.882,0H31.4a1.882,1.882,0,0,1,1.882,1.882V22.754a0,0,0,0,1,0,0H0a0,0,0,0,1,0,0V1.882A1.882,1.882,0,0,1,1.882,0Z" transform="translate(1.949 0) rotate(4.915)" fill="rgba(0,0,0,0.7)" opacity="0.3"/>
              <rect id="Rectangle_207" data-name="Rectangle 207" width="8.192" height="16.383" transform="translate(24.976 4.127) rotate(4.915)" fill="rgba(255,255,255,0.7)" opacity="0.3"/>
            </g>
            <path id="Rectangle_209" data-name="Rectangle 209" d="M1.882,0H31.4a1.882,1.882,0,0,1,1.882,1.882V22.754a0,0,0,0,1,0,0H0a0,0,0,0,1,0,0V1.882A1.882,1.882,0,0,1,1.882,0Z" transform="translate(1.949 0) rotate(4.915)" fill="none" stroke="#3e424b" stroke-linecap="round" stroke-linejoin="round" stroke-width="1"/>
          </g>
          <g id="Group_183" data-name="Group 183" transform="translate(71.218 4.213)">
            <path id="Rectangle_210" data-name="Rectangle 210" d="M1.882,0H31.4a1.882,1.882,0,0,1,1.882,1.882V22.754a0,0,0,0,1,0,0H0a0,0,0,0,1,0,0V1.882A1.882,1.882,0,0,1,1.882,0Z" transform="translate(1.949 0) rotate(4.914)" fill="#5787ff"/>
            <g id="Group_182" data-name="Group 182" transform="translate(0 0)" clip-path="url(#clip-path-7)">
              <path id="Rectangle_211" data-name="Rectangle 211" d="M1.882,0H31.4a1.882,1.882,0,0,1,1.882,1.882V22.754a0,0,0,0,1,0,0H0a0,0,0,0,1,0,0V1.882A1.882,1.882,0,0,1,1.882,0Z" transform="translate(1.949 0) rotate(4.914)" fill="rgba(0,0,0,0.7)" opacity="0.3"/>
              <rect id="Rectangle_212" data-name="Rectangle 212" width="4.949" height="16.383" transform="translate(27.668 4.359) rotate(4.914)" fill="rgba(255,255,255,0.7)" opacity="0.3"/>
            </g>
            <path id="Rectangle_214" data-name="Rectangle 214" d="M1.882,0H31.4a1.882,1.882,0,0,1,1.882,1.882V22.754a0,0,0,0,1,0,0H0a0,0,0,0,1,0,0V1.882A1.882,1.882,0,0,1,1.882,0Z" transform="translate(1.949 0) rotate(4.914)" fill="none" stroke="#3e424b" stroke-linecap="round" stroke-linejoin="round" stroke-width="1"/>
          </g>
          <path id="Rectangle_215" data-name="Rectangle 215" d="M1.882,0H31.4a1.882,1.882,0,0,1,1.882,1.882V22.754a0,0,0,0,1,0,0H0a0,0,0,0,1,0,0V1.882A1.882,1.882,0,0,1,1.882,0Z" transform="translate(62.852 3.326) rotate(4.914)" fill="#5787ff" stroke="#3e424b" stroke-linecap="round" stroke-linejoin="round" stroke-width="1"/>
          <path id="Rectangle_216" data-name="Rectangle 216" d="M1.882,0H31.4a1.882,1.882,0,0,1,1.882,1.882V22.754a0,0,0,0,1,0,0H0a0,0,0,0,1,0,0V1.882A1.882,1.882,0,0,1,1.882,0Z" transform="translate(111.85 7.539) rotate(4.914)" fill="#5787ff" stroke="#3e424b" stroke-linecap="round" stroke-linejoin="round" stroke-width="1"/>
          <rect id="Rectangle_217" data-name="Rectangle 217" width="8.192" height="16.383" transform="matrix(0.996, 0.086, -0.086, 0.996, 85.878, 7.454)" fill="rgba(255,255,255,0.7)" opacity="0.3"/>
          <rect id="Rectangle_218" data-name="Rectangle 218" width="8.192" height="16.383" transform="translate(134.338 11.62) rotate(4.915)" fill="rgba(255,255,255,0.7)" opacity="0.3"/>
          <g id="Group_185" data-name="Group 185" transform="translate(0 11.306)">
            <path id="Path_148" data-name="Path 148" d="M375.1,250.549l-8,93.083-149.971-12.9,8-93.082a5.886,5.886,0,0,1,6.371-5.363l138.238,11.887A5.885,5.885,0,0,1,375.1,250.549Z" transform="translate(-217.123 -232.269)" fill="#5787ff"/>
            <g id="Group_184" data-name="Group 184" clip-path="url(#clip-path-8)">
              <path id="Path_149" data-name="Path 149" d="M375.1,250.549l-8,93.083-149.971-12.9,8-93.082a5.886,5.886,0,0,1,6.371-5.363l138.238,11.887A5.885,5.885,0,0,1,375.1,250.549Z" transform="translate(-217.123 -232.269)" fill="rgba(0,0,0,0.7)" opacity="0.3"/>
            </g>
            <path id="Path_151" data-name="Path 151" d="M375.1,250.549l-8,93.083-149.971-12.9,8-93.082a5.886,5.886,0,0,1,6.371-5.363l138.238,11.887A5.885,5.885,0,0,1,375.1,250.549Z" transform="translate(-217.123 -232.269)" fill="none" stroke="#3e424b" stroke-linecap="round" stroke-linejoin="round" stroke-width="1"/>
          </g>
          <path id="Path_152" data-name="Path 152" d="M366.306,249.793l-8,93.083-111.289-9.57,8-93.082a5.885,5.885,0,0,1,6.371-5.363l99.556,8.561A5.885,5.885,0,0,1,366.306,249.793Z" transform="translate(-208.33 -220.207)" fill="#5787ff" stroke="#3e424b" stroke-linecap="round" stroke-linejoin="round" stroke-width="1"/>
          <path id="Path_153" data-name="Path 153" d="M355.284,251.416l-95.133-8.18a2.432,2.432,0,0,1-2.216-2.631h0a2.433,2.433,0,0,1,2.632-2.214l95.132,8.18a2.432,2.432,0,0,1,2.216,2.631h0A2.431,2.431,0,0,1,355.284,251.416Z" transform="translate(-205.12 -219.165)" fill="rgba(255,255,255,0.7)" opacity="0.3"/>
        </g>
        <g id="Group_189" data-name="Group 189" transform="translate(182.525 358.383)">
          <g id="Group_188" data-name="Group 188" transform="translate(0.512 1.466)">
            <path id="Path_154" data-name="Path 154" d="M400.28,409.775s-7.167-5.12-22.015-4.1c0,0-1.074,17.8-3.1,22.978s-12.662,14.14-14.638,15.676-1.975,6.912-1.975,6.912h45.054a142.575,142.575,0,0,0-3.585-22.851Z" transform="translate(-358.555 -405.543)" fill="#fff"/>
            <g id="Group_187" data-name="Group 187" clip-path="url(#clip-path-9)">
              <path id="Path_155" data-name="Path 155" d="M400.28,409.775s-7.167-5.12-22.015-4.1c0,0-1.074,17.8-3.1,22.978s-12.662,14.14-14.638,15.676-1.975,6.912-1.975,6.912h45.054a142.575,142.575,0,0,0-3.585-22.851Z" transform="translate(-358.555 -405.543)" fill="#5787ff" opacity="0.4"/>
            </g>
            <path id="Path_157" data-name="Path 157" d="M400.28,409.775s-7.167-5.12-22.015-4.1c0,0-1.074,17.8-3.1,22.978s-12.662,14.14-14.638,15.676-1.975,6.912-1.975,6.912h45.054a142.575,142.575,0,0,0-3.585-22.851Z" transform="translate(-358.555 -405.543)" fill="none" stroke="#3e424b" stroke-linecap="round" stroke-linejoin="round" stroke-width="1"/>
          </g>
          <path id="Path_158" data-name="Path 158" d="M385.563,410.593s-1.065,16.383-3.6,20.65a30.209,30.209,0,0,1-4.994,6.485" transform="translate(-352.627 -402.593)" fill="none" stroke="#3e424b" stroke-linecap="round" stroke-linejoin="round" stroke-width="1"/>
          <path id="Path_159" data-name="Path 159" d="M380.632,433.867s-2.261,2.816-4.778,3.2-15.773-.384-15.773-.384l5.407-4.673S376.536,430.156,380.632,433.867Z" transform="translate(-357.594 -396.428)" fill="#5787ff" stroke="#3e424b" stroke-linecap="round" stroke-linejoin="round" stroke-width="1"/>
          <path id="Path_160" data-name="Path 160" d="M383.359,431.034s-9.605-5.521-16.45-1.352" transform="translate(-355.585 -397.435)" fill="none" stroke="#3e424b" stroke-linecap="round" stroke-linejoin="round" stroke-width="1"/>
          <path id="Path_161" data-name="Path 161" d="M384.734,428.211s-6.708-5.241-14.618-2.364" transform="translate(-354.642 -398.359)" fill="none" stroke="#3e424b" stroke-linecap="round" stroke-linejoin="round" stroke-width="1"/>
          <path id="Path_162" data-name="Path 162" d="M386.98,423.8s-7.216-5.608-14.829-2.036" transform="translate(-354.043 -399.657)" fill="none" stroke="#3e424b" stroke-linecap="round" stroke-linejoin="round" stroke-width="1"/>
          <path id="Path_163" data-name="Path 163" d="M387.807,418.119s-8.755-4.708-15.129-1.138" transform="translate(-353.888 -401.107)" fill="none" stroke="#3e424b" stroke-linecap="round" stroke-linejoin="round" stroke-width="1"/>
          <path id="Path_164" data-name="Path 164" d="M403.726,440.857v3.327h-5.161s-4.439-2.56-8.663,0H365.582a17.67,17.67,0,0,1-7.423-1.664l.513-1.663Z" transform="translate(-358.159 -393.69)" fill="#5787ff" stroke="#3e424b" stroke-linecap="round" stroke-linejoin="round" stroke-width="1"/>
          <path id="Path_165" data-name="Path 165" d="M393.414,409.086l-1.153,7.251s-13.524-4.385-20.992-1.536v-8.925S385.18,400.981,393.414,409.086Z" transform="translate(-354.302 -404.411)" fill="#5787ff" stroke="#3e424b" stroke-linecap="round" stroke-linejoin="round" stroke-width="1"/>
        </g>
        <g id="Group_208" data-name="Group 208" transform="translate(151.219 52.218)">
          <path id="Path_166" data-name="Path 166" d="M419.01,297.762s-28.744,5.63-56.931-3.507a81.511,81.511,0,0,1-18.3-8.451s.078-1.812.129-4.775c.233-11.57.168-40.676-5.927-47.936-3.831-4.543-6.924-32.626.569-46.823l22.92-18.429c31.733,6.2,38.437,14.6,43.678,32.717.971,3.313,1.877,6.95,2.886,10.962,1.1,4.374,2.135,9.719,3.119,15.595C415.917,256.077,419.01,297.762,419.01,297.762Z" transform="translate(-333.969 -167.84)" fill="#fddb3a"/>
          <g id="Group_190" data-name="Group 190" clip-path="url(#clip-path-10)">
            <path id="Path_167" data-name="Path 167" d="M408.925,219.676l-12.942,57.811s-18.7,5.228-36.133,9.331a81.509,81.509,0,0,1-18.3-8.451s.078-1.812.129-4.775c15.659-8.011,38.515-19.788,38.333-20.344-.3-.867,0-31.073,0-31.073s20.642-4.8,22.907-29.054c.971,3.313,1.877,6.95,2.886,10.962C406.906,208.456,407.941,213.8,408.925,219.676Z" transform="translate(-331.739 -160.403)" fill="#fddb3a" opacity="0.2"/>
          </g>
          <path id="Path_169" data-name="Path 169" d="M419.01,297.762s-28.744,5.63-56.931-3.507a81.511,81.511,0,0,1-18.3-8.451s.078-1.812.129-4.775c.233-11.57.168-40.676-5.927-47.936-3.831-4.543-6.924-32.626.569-46.823l22.92-18.429c31.733,6.2,38.437,14.6,43.678,32.717.971,3.313,1.877,6.95,2.886,10.962,1.1,4.374,2.135,9.719,3.119,15.595C415.917,256.077,419.01,297.762,419.01,297.762Z" transform="translate(-333.969 -167.84)" fill="#fddb3a" stroke="#3e424b" stroke-linecap="round" stroke-linejoin="round" stroke-width="1"/>
        </g>
        <path id="Path_170" data-name="Path 170" d="M362.338,149.2s-10.118,14.5,3.34,25.8c0,0-16.336,18.335-21.709,15.808-2.262-1.065,0-7.68,0-7.68L334.5,165.615Z" transform="translate(-182.593 -121.105)" fill="#fff" stroke="#3e424b" stroke-linecap="round" stroke-linejoin="round" stroke-width="1"/>
        <g id="Group_192" data-name="Group 192" transform="translate(134.841)">
          <path id="Path_171" data-name="Path 171" d="M362.08,162.372c3.168-13.811,1.646-34.377-17.7-32.542-13.558,1.286-23.234,8.79-19.463,26.986,1.592,7.685,2.9,18.556,9.935,28.355,1.956,2.722,22.4-6.894,21.167-14.671" transform="translate(-320.496 -126.837)" fill="#fff" stroke="#3e424b" stroke-linecap="round" stroke-linejoin="round" stroke-width="1"/>
          <path id="Path_172" data-name="Path 172" d="M332.057,148.473a9.4,9.4,0,0,1,8.4.813" transform="translate(-318.154 -121.504)" fill="none" stroke="#3e424b" stroke-linecap="round" stroke-linejoin="round" stroke-width="1"/>
          <path id="Path_173" data-name="Path 173" d="M324.539,149.963a2.427,2.427,0,0,1,2.911-1.334" transform="translate(-320.365 -121.292)" fill="none" stroke="#3e424b" stroke-linecap="round" stroke-linejoin="round" stroke-width="1"/>
          <path id="Path_174" data-name="Path 174" d="M329.184,151.862s-3.982,7.258-3.994,8.3,4.9,1.378,4.9,1.378" transform="translate(-320.174 -120.322)" fill="#fff" stroke="#3e424b" stroke-linecap="round" stroke-linejoin="round" stroke-width="1"/>
          <path id="Path_175" data-name="Path 175" d="M335.3,153.339c.025.789-.352,1.442-.841,1.457s-.907-.612-.932-1.4.352-1.443.843-1.459S335.279,152.548,335.3,153.339Z" transform="translate(-317.721 -120.3)" fill="#3e424b"/>
          <path id="Path_176" data-name="Path 176" d="M330.545,164.359s7.656-1.437,9.011-4.127" transform="translate(-318.598 -117.86)" fill="none" stroke="#3e424b" stroke-linecap="round" stroke-linejoin="round" stroke-width="1"/>
          <path id="Path_177" data-name="Path 177" d="M325.437,145.008l5.952-1.733s8.342-3.822,10.116-3.34,5.372,6.08,5.265,9.235c0,0,5.608,4.936,6.317,12.117l1.719-.787s-.1-6.427,3.585-6.3,5.331,4.572,5.078,5.956-4.263,7.128-4.263,7.128,9.208-1.369,9.507-19.363-19.476-21.1-29.093-20.32a127,127,0,0,1-14.646.54l.545,5.143-3.932,1.024,2.937,3.584-3.21,1.47Z" transform="translate(-321.314 -127.491)" fill="#3e424b"/>
        </g>
        <path id="Path_178" data-name="Path 178" d="M350.258,293.008s23.434,6.2,29.775,23.647" transform="translate(-177.958 -78.8)" fill="none" stroke="#fff" stroke-linecap="round" stroke-linejoin="round" stroke-width="1"/>
        <path id="Path_179" data-name="Path 179" d="M365.839,300.254s-12.669,21.082-32.044,32.03" transform="translate(-182.801 -76.669)" fill="none" stroke="#fff" stroke-linecap="round" stroke-linejoin="round" stroke-width="1"/>
        <path id="Path_180" data-name="Path 180" d="M344.8,392.86s7.192-1.614,9.154-4.409" transform="translate(-179.563 -50.723)" fill="none" stroke="#fff" stroke-linecap="round" stroke-linejoin="round" stroke-width="1"/>
        <path id="Path_181" data-name="Path 181" d="M375.763,394.3s7.04-3.653,14.048,0" transform="translate(-170.455 -49.48)" fill="none" stroke="#fff" stroke-linecap="round" stroke-linejoin="round" stroke-width="1"/>
        <path id="Path_182" data-name="Path 182" d="M397.412,318.091s-11.812,30.6-17.792,33.439" transform="translate(-169.321 -71.422)" fill="none" stroke="#fff" stroke-linecap="round" stroke-linejoin="round" stroke-width="1"/>
        <path id="Path_183" data-name="Path 183" d="M353.391,281.049c.318,3.321,14.259,18.741,25.72,24.855" transform="translate(-177.036 -82.318)" fill="none" stroke="#fff" stroke-linecap="round" stroke-linejoin="round" stroke-width="1"/>
        <path id="Path_184" data-name="Path 184" d="M362.564,271a21.432,21.432,0,0,1,.989,13c-1.79,6.906,0,11.469,0,11.469" transform="translate(-174.338 -85.274)" fill="none" stroke="#fff" stroke-linecap="round" stroke-linejoin="round" stroke-width="1"/>
        <path id="Path_185" data-name="Path 185" d="M342.96,221.816s21.786,28.195,45.193,37.448" transform="translate(-180.105 -99.743)" fill="none" stroke="#3e424b" stroke-linecap="round" stroke-linejoin="round" stroke-width="1"/>
        <path id="Path_186" data-name="Path 186" d="M360.42,186.611s-.074,19.167,13.749,27.812" transform="translate(-174.969 -110.1)" fill="none" stroke="#3e424b" stroke-linecap="round" stroke-linejoin="round" stroke-width="1"/>
        <g id="Group_193" data-name="Group 193" transform="translate(114.704 104.323)">
          <path id="Path_187" data-name="Path 187" d="M378.709,208.251c-2.921,2.882.268,38.927.268,38.927s-17,6.66-22.314,10.946-30.524,14.117-30.524,14.117-3.877,13.23.968,13.682,54.965-16.633,66.426-22.625c0,0,7.465-44.046,7.414-55.2" transform="translate(-300.189 -208.101)" fill="#fff" stroke="#3e424b" stroke-linecap="round" stroke-linejoin="round" stroke-width="1"/>
          <path id="Path_188" data-name="Path 188" d="M333.7,257.408c-2.326-.437-6.42-1.972-8.64-1.461s-6.143,2.9-10.24,3.925-2.389,2.56,0,3.072a16.278,16.278,0,0,0,5.291,0l-3.318,3.242s-5.253,2.731-5.9,2.731c-1.195,0-5.461,1.162-5.12,2.97s2.731,1.6,5.461,1.7c0,0-4.352.872-3.925,3.347.291,1.69,5.12.171,7.68.171,0,0-2.047,2.218-.513,2.9s4.909-1.024,4.909-1.024-.129,1.842,1.407,2.031,5.368-1.347,7.975-2.883a69.486,69.486,0,0,0,7.385-5.461A12.373,12.373,0,0,1,339.5,270.5" transform="translate(-305.754 -194.056)" fill="#fff" stroke="#3e424b" stroke-linecap="round" stroke-linejoin="round" stroke-width="1"/>
          <path id="Path_189" data-name="Path 189" d="M309.989,269.786a29.764,29.764,0,0,0,3.584-.408c1.024-.256,2.049-.6,2.049-.6" transform="translate(-304.508 -190.251)" fill="none" stroke="#3e424b" stroke-linecap="round" stroke-linejoin="round" stroke-width="1"/>
          <path id="Path_190" data-name="Path 190" d="M312.89,272.624a12.463,12.463,0,0,0,4.438-1.536" transform="translate(-303.655 -189.572)" fill="none" stroke="#3e424b" stroke-linecap="round" stroke-linejoin="round" stroke-width="1"/>
          <path id="Path_191" data-name="Path 191" d="M316.287,274a7.571,7.571,0,0,0,3.241-1.195" transform="translate(-302.656 -189.068)" fill="none" stroke="#3e424b" stroke-linecap="round" stroke-linejoin="round" stroke-width="1"/>
          <path id="Path_192" data-name="Path 192" d="M314.7,264.56s-.938,2.134,0,3.329,2.049,1.262,2.22,2.636,2.389,1.289,3.2,2.142,1.413,2.451,3.968,2.56" transform="translate(-303.245 -191.492)" fill="none" stroke="#3e424b" stroke-linecap="round" stroke-linejoin="round" stroke-width="1"/>
        </g>
        <path id="Path_193" data-name="Path 193" d="M366.483,179.329c-8.816,19.939,0,47.614,0,47.614S387.8,234.2,389.8,231.068s5.57-18.41,6.175-25.477" transform="translate(-174.338 -112.242)" fill="#fddb3a" stroke="#3e424b" stroke-linecap="round" stroke-linejoin="round" stroke-width="1"/>
        <path id="Path_194" data-name="Path 194" d="M387.307,201.33s-9.1,12.458-16.263,12.629" transform="translate(-171.843 -105.77)" fill="none" stroke="#3e424b" stroke-linecap="round" stroke-linejoin="round" stroke-width="1"/>
      </g>
    </g>
    <g id="Character_1" data-name="Character 1" transform="translate(1216.969 638.632)">
      <path id="Path_195" data-name="Path 195" d="M138.023,331.137a22.124,22.124,0,0,1,16.365-2.047c9.468,2.389,34.043,37.545,37.456,40.958s9.814,5.235,15.7,11.38c9.318,9.722,22.869,18.315,24.233,18.315s2.476-.853,4.181-1.195,14.934-1.536,14.934-1.536,4.436.986,0,2.882-4.1,3.6-4.1,3.6-.892,1.437.892,2.8,2.834.624,5.38,4.237-3.6,1.566-3.6,1.566,1.365,3.9-1.365,3.488-.342,3.795-4.778,3.225S229.389,412.257,227,405.971c0,0-38.74-18.516-44.542-23.3s-30.179-30.377-31.9-30.719" transform="translate(-86.265 -261.619)" fill="#fff" stroke="#3e424b" stroke-linecap="round" stroke-linejoin="round" stroke-width="1"/>
      <path id="Rectangle_219" data-name="Rectangle 219" d="M1.882,0H31.4a1.882,1.882,0,0,1,1.882,1.882V22.754a0,0,0,0,1,0,0H0a0,0,0,0,1,0,0V1.882A1.882,1.882,0,0,1,1.882,0Z" transform="translate(150.668 104.205)" fill="#5787ff"/>
      <g id="Group_195" data-name="Group 195" transform="translate(150.668 104.205)" clip-path="url(#clip-path-11)">
        <path id="Rectangle_220" data-name="Rectangle 220" d="M1.882,0H31.4a1.882,1.882,0,0,1,1.882,1.882V22.754a0,0,0,0,1,0,0H0a0,0,0,0,1,0,0V1.882A1.882,1.882,0,0,1,1.882,0Z" fill="rgba(0,0,0,0.7)" opacity="0.3"/>
        <rect id="Rectangle_221" data-name="Rectangle 221" width="8.192" height="16.383" transform="translate(23.295 2.14)" fill="rgba(255,255,255,0.7)" opacity="0.3"/>
      </g>
      <path id="Rectangle_223" data-name="Rectangle 223" d="M1.882,0H31.4a1.882,1.882,0,0,1,1.882,1.882V22.754a0,0,0,0,1,0,0H0a0,0,0,0,1,0,0V1.882A1.882,1.882,0,0,1,1.882,0Z" transform="translate(150.668 104.205)" fill="none" stroke="#3e424b" stroke-linecap="round" stroke-linejoin="round" stroke-width="1"/>
      <path id="Rectangle_224" data-name="Rectangle 224" d="M1.882,0H31.4a1.882,1.882,0,0,1,1.882,1.882V22.754a0,0,0,0,1,0,0H0a0,0,0,0,1,0,0V1.882A1.882,1.882,0,0,1,1.882,0Z" transform="translate(199.847 104.205)" fill="#5787ff"/>
      <g id="Group_197" data-name="Group 197" transform="translate(199.847 104.205)" clip-path="url(#clip-path-11)">
        <path id="Rectangle_225" data-name="Rectangle 225" d="M1.882,0H31.4a1.882,1.882,0,0,1,1.882,1.882V22.754a0,0,0,0,1,0,0H0a0,0,0,0,1,0,0V1.882A1.882,1.882,0,0,1,1.882,0Z" fill="rgba(0,0,0,0.7)" opacity="0.3"/>
        <rect id="Rectangle_226" data-name="Rectangle 226" width="4.949" height="16.383" transform="translate(25.997 2.14)" fill="rgba(255,255,255,0.7)" opacity="0.3"/>
      </g>
      <path id="Rectangle_228" data-name="Rectangle 228" d="M1.882,0H31.4a1.882,1.882,0,0,1,1.882,1.882V22.754a0,0,0,0,1,0,0H0a0,0,0,0,1,0,0V1.882A1.882,1.882,0,0,1,1.882,0Z" transform="translate(199.847 104.205)" fill="none" stroke="#3e424b" stroke-linecap="round" stroke-linejoin="round" stroke-width="1"/>
      <path id="Rectangle_229" data-name="Rectangle 229" d="M1.882,0H31.4a1.882,1.882,0,0,1,1.882,1.882V22.754a0,0,0,0,1,0,0H0a0,0,0,0,1,0,0V1.882A1.882,1.882,0,0,1,1.882,0Z" transform="translate(189.494 104.205)" fill="#5787ff" stroke="#3e424b" stroke-linecap="round" stroke-linejoin="round" stroke-width="1"/>
      <path id="Rectangle_230" data-name="Rectangle 230" d="M1.882,0H31.4a1.882,1.882,0,0,1,1.882,1.882V22.754a0,0,0,0,1,0,0H0a0,0,0,0,1,0,0V1.882A1.882,1.882,0,0,1,1.882,0Z" transform="translate(238.672 104.205)" fill="#5787ff" stroke="#3e424b" stroke-linecap="round" stroke-linejoin="round" stroke-width="1"/>
      <rect id="Rectangle_231" data-name="Rectangle 231" width="8.192" height="16.383" transform="translate(212.789 106.345)" fill="rgba(255,255,255,0.7)" opacity="0.3"/>
      <rect id="Rectangle_232" data-name="Rectangle 232" width="8.192" height="16.383" transform="translate(261.427 106.345)" fill="rgba(255,255,255,0.7)" opacity="0.3"/>
      <path id="Path_196" data-name="Path 196" d="M353.635,372.571V466H203.11V372.571A5.885,5.885,0,0,1,209,366.683H347.747A5.885,5.885,0,0,1,353.635,372.571Z" transform="translate(-67.118 -250.352)" fill="#5787ff"/>
      <g id="Group_199" data-name="Group 199" transform="translate(135.992 116.331)" clip-path="url(#clip-path-13)">
        <path id="Path_197" data-name="Path 197" d="M353.635,372.571V466H203.11V372.571A5.885,5.885,0,0,1,209,366.683H347.747A5.885,5.885,0,0,1,353.635,372.571Z" transform="translate(-203.11 -366.683)" fill="rgba(0,0,0,0.7)" opacity="0.3"/>
      </g>
      <path id="Path_199" data-name="Path 199" d="M353.635,372.571V466H203.11V372.571A5.885,5.885,0,0,1,209,366.683H347.747A5.885,5.885,0,0,1,353.635,372.571Z" transform="translate(-67.118 -250.352)" fill="none" stroke="#3e424b" stroke-linecap="round" stroke-linejoin="round" stroke-width="1"/>
      <path id="Path_200" data-name="Path 200" d="M344.81,372.571V466H233.11V372.571A5.885,5.885,0,0,1,239,366.683h99.923A5.885,5.885,0,0,1,344.81,372.571Z" transform="translate(-58.293 -250.352)" fill="#5787ff" stroke="#3e424b" stroke-linecap="round" stroke-linejoin="round" stroke-width="1"/>
      <path id="Path_201" data-name="Path 201" d="M335.839,374.908H240.355a2.432,2.432,0,0,1-2.432-2.432h0a2.432,2.432,0,0,1,2.432-2.433h95.484a2.432,2.432,0,0,1,2.432,2.433h0A2.432,2.432,0,0,1,335.839,374.908Z" transform="translate(-56.877 -249.363)" fill="rgba(255,255,255,0.7)" opacity="0.3"/>
      <path id="Path_202" data-name="Path 202" d="M200.205,460.07c-7.778,0-18.675-5-31.241-10.276-13.032-5.487-27.876-11.285-42.941-12.152-5.617-.324-2.213,22.428-2.213,22.428H111.515S99.4,443.867,98.03,429.359c0,0,9.913-6.121,12.295-6.484a21.672,21.672,0,0,1,2.472-.117c2.666-.026,6.225.117,6.225.117a.04.04,0,0,1-.026-.013c-.569-.337-9.642-5.8-14.65-11.35-4.128-4.581-6.024-11.822-6.16-16.138a78.094,78.094,0,0,1,.951-8.54l64.6,1.073s.7.492,1.941,1.411c7.493,5.461,34.878,25.806,48.57,41.142,4.426,4.957,7.416,9.383,7.856,12.618C224.147,458.025,211.943,460.07,200.205,460.07Z" transform="translate(-98.03 -244.424)" fill="#757575" stroke="#3e424b" stroke-linecap="round" stroke-linejoin="round" stroke-width="1"/>
      <path id="Path_203" data-name="Path 203" d="M214.247,430.459l-31.423,7.183a46.342,46.342,0,0,0-13.861,12.152c-13.032-5.487-27.876-11.285-42.941-12.152-5.617-.324-2.213,22.428-2.213,22.428H111.515S99.4,443.867,98.03,429.359c0,0,11.441,16.307,14.171,24.538,0,0,4.439-15.323,11.609-21.47a59.09,59.09,0,0,0-11.013-9.667c2.666-.026,6.225.117,6.225.117a.04.04,0,0,1-.026-.013c-.569-.337-9.642-5.8-14.65-11.35-4.128-4.581-5.8-11.835-6.16-16.138-.176-2.128.074-8.54.074-8.54s48.186,6.871,67.417,2.483C173.17,394.779,200.554,415.123,214.247,430.459Z" transform="translate(-98.03 -244.424)" fill="#3e424b" opacity="0.3"/>
      <path id="Path_204" data-name="Path 204" d="M148.8,419.692s25.6,12.827,32.425,17.848,8.866,3.655,8.866,3.655" transform="translate(-83.094 -234.758)" fill="none" stroke="#3e424b" stroke-linecap="round" stroke-linejoin="round" stroke-width="1"/>
      <path id="Path_205" data-name="Path 205" d="M102.912,418.637s6.143,9.385,6.485,12.2" transform="translate(-96.594 -235.068)" fill="none" stroke="#3e424b" stroke-linecap="round" stroke-linejoin="round" stroke-width="1"/>
      <path id="Path_206" data-name="Path 206" d="M189.423,279.619s13.661-5.935,12.381,19.283,3.327,26.5,3.327,26.5-34.3,14.079-43.005,2.047S161.682,282.475,189.423,279.619Z" transform="translate(-80.148 -276.143)" fill="#3e424b"/>
      <path id="Path_207" data-name="Path 207" d="M188.781,316.836s-14.107,6.655-15.386,12.8-18.944-3.1-18.944-3.1l12.8-18.41Z" transform="translate(-81.433 -267.577)" fill="#fff" stroke="#3e424b" stroke-linecap="round" stroke-linejoin="round" stroke-width="1"/>
      <path id="Path_208" data-name="Path 208" d="M112.862,368.1c-32.4,41.2-6.094,61.085,30.585,57.8l-7.352,11.6,18.446,3.2s14.156-9.236,33.435-19.114c32.823-16.814,46.079-15.816,42.665-32.653s-43.6-27.76-83.921-10.012C146.72,378.927,124.813,352.91,112.862,368.1Z" transform="translate(-97.978 -251.335)" fill="#757575" stroke="#3e424b" stroke-linecap="round" stroke-linejoin="round" stroke-width="1"/>
      <path id="Path_209" data-name="Path 209" d="M118.46,441.938s8.419-23.316,11.945-24.575,16.753,3.754,18.446,7.509c0,0,4.5-6.889,6.338-3.956s-.817,7.711,0,11.466,9.9,8.874,13.553,9.556,5.694,2.731,5.694,4.778v4.438H118.46S116.411,447.353,118.46,441.938Z" transform="translate(-92.288 -235.501)" fill="#fff" stroke="#3e424b" stroke-linecap="round" stroke-linejoin="round" stroke-width="1"/>
      <path id="Path_210" data-name="Path 210" d="M149.142,426.094s-7.419,3.661-10.128,2.636,1.387,6.145,2.411,6.827,7.717-2.389,7.717-2.389" transform="translate(-86.242 -232.875)" fill="none" stroke="#3e424b" stroke-linecap="round" stroke-linejoin="round" stroke-width="1"/>
      <path id="Path_211" data-name="Path 211" d="M123.665,423.12s10.062.189,13.133,3.849" transform="translate(-90.489 -233.749)" fill="none" stroke="#3e424b" stroke-linecap="round" stroke-linejoin="round" stroke-width="1"/>
      <path id="Path_212" data-name="Path 212" d="M118.253,436.307s16.041,3.754,17.407,3.754,6.485-1.877,6.485-1.877,4.394,2.218,7.317,3.584,22.037,0,22.037,0" transform="translate(-92.081 -229.87)" fill="none" stroke="#3e424b" stroke-linecap="round" stroke-linejoin="round" stroke-width="1"/>
      <path id="Path_213" data-name="Path 213" d="M133.164,418.992c15.332-1.666,45.079-20.544,55.384-27.1s13.038-4.854,13.038-4.854" transform="translate(-87.695 -244.424)" fill="none" stroke="#3e424b" stroke-linecap="round" stroke-linejoin="round" stroke-width="1"/>
      <path id="Path_214" data-name="Path 214" d="M98.207,407.163l2.45-18.573,5.9-4.456c9.557-23.21,52.888-66.543,64.691-66.4,17.75.206,20.88,18.826,23.069,39.211s-25.458,17.313-25.458,17.313v5.12l-15.72,8.14,9.52-.3S135.271,413.835,98.207,407.163Z" transform="translate(-97.978 -264.753)" fill="#5787ff" stroke="#3e424b" stroke-linecap="round" stroke-linejoin="round" stroke-width="1"/>
      <path id="Path_215" data-name="Path 215" d="M157.82,292.984c3.709-11.636,20.722-14.752,26.81-12.841,3.828,1.2,9.158,5.42,11.532,10.52,1.556,3.342-1.693,9.274.621,12.731,3.314,4.954,3.032,15.409,1.836,21.947-.639,3.5-15.177,5.573-27.061-2.564C158.8,314.04,154.223,304.266,157.82,292.984Z" transform="translate(-80.791 -275.963)" fill="#fff" stroke="#3e424b" stroke-linecap="round" stroke-linejoin="round" stroke-width="1"/>
      <path id="Path_216" data-name="Path 216" d="M177.229,277.559s14.966-2.442,15.067,1.406c.666,25.53-14.641,30.891-14.641,30.891s-6.251-4.976-7.658-1.562,2.21,12.858,6.63,13.058c0,0-3.411,4.447-.183,10.665,0,0-25.335,4.226-27.434-7.513a94.262,94.262,0,0,0,2.1-12.393C152.755,295.662,148.9,284.59,177.229,277.559Z" transform="translate(-83.033 -276.795)" fill="#3e424b"/>
      <path id="Path_217" data-name="Path 217" d="M186.26,297.486c3.12,2.819,5.36,2.819,5.323,3.817-.116,3.151-3.917,4.721-3.917,4.721" transform="translate(-72.075 -270.708)" fill="#fff" stroke="#3e424b" stroke-linecap="round" stroke-linejoin="round" stroke-width="1"/>
      <path id="Path_218" data-name="Path 218" d="M188.858,308.13a11.5,11.5,0,0,1-6.816.171" transform="translate(-73.316 -267.577)" fill="none" stroke="#3e424b" stroke-linecap="round" stroke-linejoin="round" stroke-width="1"/>
      <path id="Path_219" data-name="Path 219" d="M181.453,287.114s9.943-2.889,8.117,13.264c0,0,4.152-5.622,4.136-11.958-.025-10.953-14.664-8.759-14.664-8.759l1.909,7.755" transform="translate(-74.198 -276.004)" fill="#3e424b"/>
      <path id="Path_220" data-name="Path 220" d="M188.489,291.611a3.314,3.314,0,0,0-2.638-.476" transform="translate(-72.195 -272.593)" fill="none" stroke="#3e424b" stroke-linecap="round" stroke-linejoin="round" stroke-width="1"/>
      <path id="Path_221" data-name="Path 221" d="M184.45,291.355s-5.349.3-7.659,3.916" transform="translate(-74.86 -272.511)" fill="none" stroke="#3e424b" stroke-linecap="round" stroke-linejoin="round" stroke-width="1"/>
      <path id="Path_222" data-name="Path 222" d="M182.158,298.252c.082.857-.283,1.591-.814,1.641s-1.026-.6-1.107-1.46.283-1.589.814-1.64S182.077,297.4,182.158,298.252Z" transform="translate(-73.85 -270.912)" fill="#3e424b"/>
      <path id="Path_223" data-name="Path 223" d="M133.813,414.681s11.905,1.258,14.492,6.485" transform="translate(-87.504 -236.232)" fill="none" stroke="#3e424b" stroke-linecap="round" stroke-linejoin="round" stroke-width="1"/>
      <path id="Path_224" data-name="Path 224" d="M157.1,325.109a22.118,22.118,0,0,1,16.365-2.049c9.468,2.39,34.043,37.547,37.456,40.959s9.814,5.235,15.7,11.378c9.318,9.723,22.868,18.316,24.233,18.316s2.474-.853,4.182-1.195,14.933-1.536,14.933-1.536,4.436.986,0,2.882-4.1,3.6-4.1,3.6-.892,1.437.89,2.8,2.836.624,5.381,4.237-3.6,1.565-3.6,1.565,1.365,3.9-1.365,3.489-.342,3.794-4.779,3.225-13.937-6.558-16.326-12.843c0,0-38.74-18.517-44.542-23.3s-30.179-30.377-31.9-30.718" transform="translate(-80.652 -263.392)" fill="#fff" stroke="#3e424b" stroke-linecap="round" stroke-linejoin="round" stroke-width="1"/>
      <path id="Path_225" data-name="Path 225" d="M152.8,322.205s19.1-5.12,25.763-1.365S197.856,342,197.856,342s-15.393,13.786-20.154,12.525-19.331-3.311-19.331-3.311" transform="translate(-81.917 -264.242)" fill="#5787ff" stroke="#3e424b" stroke-linecap="round" stroke-linejoin="round" stroke-width="1"/>
      <path id="Path_226" data-name="Path 226" d="M167.75,345.3s-6.921,3.808-9.473,3.808" transform="translate(-80.307 -256.641)" fill="none" stroke="#3e424b" stroke-linecap="round" stroke-linejoin="round" stroke-width="1"/>
      <path id="Path_227" data-name="Path 227" d="M157.1,330.549c.575,1.024.38,12.221,12.535,15.7" transform="translate(-80.652 -260.981)" fill="none" stroke="#3e424b" stroke-linecap="round" stroke-linejoin="round" stroke-width="1"/>
      <path id="Path_228" data-name="Path 228" d="M106.912,370.094s25.94,4.438,34.815-3.413" transform="translate(-95.417 -250.352)" fill="none" stroke="#3e424b" stroke-linecap="round" stroke-linejoin="round" stroke-width="1"/>
      <path id="Path_229" data-name="Path 229" d="M146.159,371.7s-6.466-1.143-8.855,2.185-15.359,6.4-15.359,6.4" transform="translate(-90.995 -248.933)" fill="none" stroke="#3e424b" stroke-linecap="round" stroke-linejoin="round" stroke-width="1"/>
      <path id="Path_230" data-name="Path 230" d="M100.536,390.739s-3.735,16.12,12.213,23.339" transform="translate(-97.404 -243.275)" fill="none" stroke="#3e424b" stroke-linecap="round" stroke-linejoin="round" stroke-width="1"/>
      <path id="Path_231" data-name="Path 231" d="M106.912,392.128s.085,7.936,2.645,12.287l7.936,2.56,8.874-4.941s-1.878-10.162-2.047-12.209" transform="translate(-95.417 -243.544)" fill="none" stroke="#3e424b" stroke-linecap="round" stroke-linejoin="round" stroke-width="1"/>
    </g>
  </g>
</svg>
